<mxfile host="app.diagrams.net" modified="2021-05-27T16:48:40.735Z" agent="5.0 (Windows NT 10.0; Win64; x64) AppleWebKit/537.36 (KHTML, like Gecko) Chrome/90.0.4430.212 Safari/537.36" etag="hbUq8vFqMNIF8_rwqz3q" version="14.7.2" type="github">
  <diagram id="gC-c-oCEHQdX4P-yTySM" name="Page-1">
    <mxGraphModel dx="1810" dy="493" grid="1" gridSize="10" guides="1" tooltips="1" connect="1" arrows="1" fold="1" page="1" pageScale="1" pageWidth="850" pageHeight="1100" math="0" shadow="0">
      <root>
        <mxCell id="0" />
        <mxCell id="1" parent="0" />
        <mxCell id="2bJsUL1D9cXuKuuz8NJb-1" value="&lt;h1&gt;conv_window&lt;/h1&gt;&lt;span style=&quot;text-align: center&quot;&gt;&amp;nbsp;&lt;/span&gt;&lt;span style=&quot;text-align: center&quot;&gt;FILTER_SIZE=3&amp;nbsp;&lt;/span&gt;&lt;p&gt;.&lt;/p&gt;" style="text;html=1;strokeColor=none;fillColor=none;spacing=5;spacingTop=-20;whiteSpace=wrap;overflow=hidden;rounded=0;" vertex="1" parent="1">
          <mxGeometry x="10" y="30" width="190" height="70" as="geometry" />
        </mxCell>
        <mxCell id="2bJsUL1D9cXuKuuz8NJb-2" value="" style="rounded=0;whiteSpace=wrap;html=1;" vertex="1" parent="1">
          <mxGeometry x="290" y="130" width="120" height="160" as="geometry" />
        </mxCell>
        <mxCell id="2bJsUL1D9cXuKuuz8NJb-3" value="Register" style="text;html=1;strokeColor=none;fillColor=none;align=center;verticalAlign=middle;whiteSpace=wrap;rounded=0;rotation=-90;" vertex="1" parent="1">
          <mxGeometry x="330" y="200" width="40" height="20" as="geometry" />
        </mxCell>
        <mxCell id="2bJsUL1D9cXuKuuz8NJb-4" value="" style="endArrow=classic;html=1;entryX=0.01;entryY=0.365;entryDx=0;entryDy=0;entryPerimeter=0;" edge="1" parent="1" target="2bJsUL1D9cXuKuuz8NJb-2">
          <mxGeometry width="50" height="50" relative="1" as="geometry">
            <mxPoint x="200" y="188" as="sourcePoint" />
            <mxPoint x="180" y="140" as="targetPoint" />
          </mxGeometry>
        </mxCell>
        <mxCell id="2bJsUL1D9cXuKuuz8NJb-5" value="sum" style="text;html=1;strokeColor=none;fillColor=none;align=center;verticalAlign=middle;whiteSpace=wrap;rounded=0;" vertex="1" parent="1">
          <mxGeometry x="230" y="150" width="40" height="20" as="geometry" />
        </mxCell>
        <mxCell id="2bJsUL1D9cXuKuuz8NJb-6" value="D" style="text;html=1;strokeColor=none;fillColor=none;align=center;verticalAlign=middle;whiteSpace=wrap;rounded=0;" vertex="1" parent="1">
          <mxGeometry x="280" y="180" width="40" height="20" as="geometry" />
        </mxCell>
        <mxCell id="2bJsUL1D9cXuKuuz8NJb-7" value="Q" style="text;html=1;strokeColor=none;fillColor=none;align=center;verticalAlign=middle;whiteSpace=wrap;rounded=0;" vertex="1" parent="1">
          <mxGeometry x="380" y="220" width="40" height="20" as="geometry" />
        </mxCell>
        <mxCell id="2bJsUL1D9cXuKuuz8NJb-8" value="" style="endArrow=classic;html=1;exitX=0.75;exitY=1;exitDx=0;exitDy=0;entryX=0;entryY=0.75;entryDx=0;entryDy=0;" edge="1" parent="1" source="2bJsUL1D9cXuKuuz8NJb-7" target="2bJsUL1D9cXuKuuz8NJb-11">
          <mxGeometry width="50" height="50" relative="1" as="geometry">
            <mxPoint x="510" y="250" as="sourcePoint" />
            <mxPoint x="80" y="180" as="targetPoint" />
            <Array as="points">
              <mxPoint x="470" y="240" />
              <mxPoint x="470" y="390" />
              <mxPoint x="80" y="390" />
              <mxPoint x="80" y="213" />
            </Array>
          </mxGeometry>
        </mxCell>
        <mxCell id="2bJsUL1D9cXuKuuz8NJb-11" value="" style="rounded=0;whiteSpace=wrap;html=1;" vertex="1" parent="1">
          <mxGeometry x="130" y="160" width="70" height="70" as="geometry" />
        </mxCell>
        <mxCell id="2bJsUL1D9cXuKuuz8NJb-12" value="adder" style="text;html=1;strokeColor=none;fillColor=none;align=center;verticalAlign=middle;whiteSpace=wrap;rounded=0;rotation=90;" vertex="1" parent="1">
          <mxGeometry x="140" y="185" width="40" height="20" as="geometry" />
        </mxCell>
        <mxCell id="2bJsUL1D9cXuKuuz8NJb-13" value="" style="endArrow=classic;html=1;entryX=0;entryY=0.5;entryDx=0;entryDy=0;" edge="1" parent="1" target="2bJsUL1D9cXuKuuz8NJb-11">
          <mxGeometry width="50" height="50" relative="1" as="geometry">
            <mxPoint y="195" as="sourcePoint" />
            <mxPoint x="80" y="160" as="targetPoint" />
          </mxGeometry>
        </mxCell>
        <mxCell id="2bJsUL1D9cXuKuuz8NJb-14" value="MUL_PIX_FIT&lt;br&gt;( i*16+15 Downto i*16 )" style="text;html=1;strokeColor=none;fillColor=none;align=left;verticalAlign=middle;whiteSpace=wrap;rounded=0;" vertex="1" parent="1">
          <mxGeometry y="165" width="130" height="20" as="geometry" />
        </mxCell>
        <mxCell id="2bJsUL1D9cXuKuuz8NJb-17" value="" style="rounded=0;whiteSpace=wrap;html=1;" vertex="1" parent="1">
          <mxGeometry x="280" y="450" width="120" height="180" as="geometry" />
        </mxCell>
        <mxCell id="2bJsUL1D9cXuKuuz8NJb-18" value="" style="endArrow=classic;html=1;entryX=-0.016;entryY=0.852;entryDx=0;entryDy=0;entryPerimeter=0;" edge="1" parent="1" target="2bJsUL1D9cXuKuuz8NJb-2">
          <mxGeometry width="50" height="50" relative="1" as="geometry">
            <mxPoint x="170" y="266" as="sourcePoint" />
            <mxPoint x="230" y="250" as="targetPoint" />
          </mxGeometry>
        </mxCell>
        <mxCell id="2bJsUL1D9cXuKuuz8NJb-19" value="CLK" style="text;html=1;strokeColor=none;fillColor=none;align=center;verticalAlign=middle;whiteSpace=wrap;rounded=0;" vertex="1" parent="1">
          <mxGeometry x="240" y="240" width="40" height="20" as="geometry" />
        </mxCell>
        <mxCell id="2bJsUL1D9cXuKuuz8NJb-20" value="CLK" style="text;html=1;strokeColor=none;fillColor=none;align=center;verticalAlign=middle;whiteSpace=wrap;rounded=0;" vertex="1" parent="1">
          <mxGeometry x="290" y="260" width="40" height="20" as="geometry" />
        </mxCell>
        <mxCell id="2bJsUL1D9cXuKuuz8NJb-21" value="" style="shape=flexArrow;endArrow=classic;html=1;width=23;endSize=7.98;entryX=0;entryY=0.25;entryDx=0;entryDy=0;" edge="1" parent="1" target="2bJsUL1D9cXuKuuz8NJb-17">
          <mxGeometry width="50" height="50" relative="1" as="geometry">
            <mxPoint x="120" y="495" as="sourcePoint" />
            <mxPoint x="190" y="480" as="targetPoint" />
          </mxGeometry>
        </mxCell>
        <mxCell id="2bJsUL1D9cXuKuuz8NJb-22" value="MUL_FIL_WIN" style="text;html=1;strokeColor=none;fillColor=none;align=center;verticalAlign=middle;whiteSpace=wrap;rounded=0;rotation=-90;" vertex="1" parent="1">
          <mxGeometry x="320" y="520" width="40" height="20" as="geometry" />
        </mxCell>
        <mxCell id="2bJsUL1D9cXuKuuz8NJb-23" value="" style="shape=flexArrow;endArrow=classic;html=1;width=23;endSize=7.98;entryX=0;entryY=0.75;entryDx=0;entryDy=0;" edge="1" parent="1" target="2bJsUL1D9cXuKuuz8NJb-17">
          <mxGeometry width="50" height="50" relative="1" as="geometry">
            <mxPoint x="120" y="585" as="sourcePoint" />
            <mxPoint x="270" y="579.5" as="targetPoint" />
          </mxGeometry>
        </mxCell>
        <mxCell id="2bJsUL1D9cXuKuuz8NJb-24" value="" style="shape=flexArrow;endArrow=classic;html=1;width=33;endSize=7.53;" edge="1" parent="1" source="2bJsUL1D9cXuKuuz8NJb-17">
          <mxGeometry width="50" height="50" relative="1" as="geometry">
            <mxPoint x="440" y="565" as="sourcePoint" />
            <mxPoint x="530" y="540" as="targetPoint" />
          </mxGeometry>
        </mxCell>
        <mxCell id="2bJsUL1D9cXuKuuz8NJb-25" value="image window" style="text;html=1;strokeColor=none;fillColor=none;align=center;verticalAlign=middle;whiteSpace=wrap;rounded=0;" vertex="1" parent="1">
          <mxGeometry x="170" y="460" width="40" height="20" as="geometry" />
        </mxCell>
        <mxCell id="2bJsUL1D9cXuKuuz8NJb-26" value="image window" style="text;html=1;strokeColor=none;fillColor=none;align=center;verticalAlign=middle;whiteSpace=wrap;rounded=0;" vertex="1" parent="1">
          <mxGeometry x="280" y="490" width="40" height="20" as="geometry" />
        </mxCell>
        <mxCell id="2bJsUL1D9cXuKuuz8NJb-27" value="filter" style="text;html=1;strokeColor=none;fillColor=none;align=center;verticalAlign=middle;whiteSpace=wrap;rounded=0;" vertex="1" parent="1">
          <mxGeometry x="170" y="550" width="40" height="20" as="geometry" />
        </mxCell>
        <mxCell id="2bJsUL1D9cXuKuuz8NJb-28" value="MUL_PIX_FIT" style="text;html=1;strokeColor=none;fillColor=none;align=left;verticalAlign=middle;whiteSpace=wrap;rounded=0;" vertex="1" parent="1">
          <mxGeometry x="410" y="490" width="130" height="20" as="geometry" />
        </mxCell>
        <mxCell id="2bJsUL1D9cXuKuuz8NJb-29" value="" style="shape=trapezoid;perimeter=trapezoidPerimeter;whiteSpace=wrap;html=1;fixedSize=1;rotation=90;" vertex="1" parent="1">
          <mxGeometry x="540" y="160" width="120" height="60" as="geometry" />
        </mxCell>
        <mxCell id="2bJsUL1D9cXuKuuz8NJb-32" value="" style="endArrow=classic;html=1;exitX=0.5;exitY=0;exitDx=0;exitDy=0;" edge="1" parent="1" source="2bJsUL1D9cXuKuuz8NJb-29">
          <mxGeometry width="50" height="50" relative="1" as="geometry">
            <mxPoint x="640" y="220" as="sourcePoint" />
            <mxPoint x="690" y="190" as="targetPoint" />
          </mxGeometry>
        </mxCell>
        <mxCell id="2bJsUL1D9cXuKuuz8NJb-33" value="" style="endArrow=classic;html=1;entryX=0.309;entryY=0.987;entryDx=0;entryDy=0;entryPerimeter=0;" edge="1" parent="1" target="2bJsUL1D9cXuKuuz8NJb-29">
          <mxGeometry width="50" height="50" relative="1" as="geometry">
            <mxPoint x="480" y="167" as="sourcePoint" />
            <mxPoint x="530" y="160" as="targetPoint" />
          </mxGeometry>
        </mxCell>
        <mxCell id="2bJsUL1D9cXuKuuz8NJb-34" value="" style="endArrow=classic;html=1;entryX=0.75;entryY=1;entryDx=0;entryDy=0;" edge="1" parent="1" target="2bJsUL1D9cXuKuuz8NJb-29">
          <mxGeometry width="50" height="50" relative="1" as="geometry">
            <mxPoint x="480" y="220" as="sourcePoint" />
            <mxPoint x="520" y="190" as="targetPoint" />
          </mxGeometry>
        </mxCell>
        <mxCell id="2bJsUL1D9cXuKuuz8NJb-39" value="" style="endArrow=classic;html=1;entryX=0.349;entryY=-0.002;entryDx=0;entryDy=0;entryPerimeter=0;" edge="1" parent="1" target="2bJsUL1D9cXuKuuz8NJb-2">
          <mxGeometry width="50" height="50" relative="1" as="geometry">
            <mxPoint x="332" y="40" as="sourcePoint" />
            <mxPoint x="340" y="40" as="targetPoint" />
          </mxGeometry>
        </mxCell>
        <mxCell id="2bJsUL1D9cXuKuuz8NJb-41" value="start" style="text;html=1;strokeColor=none;fillColor=none;align=center;verticalAlign=middle;whiteSpace=wrap;rounded=0;" vertex="1" parent="1">
          <mxGeometry x="340" y="30" width="40" height="20" as="geometry" />
        </mxCell>
        <mxCell id="2bJsUL1D9cXuKuuz8NJb-43" value="&lt;span&gt;! start&lt;/span&gt;" style="text;html=1;align=center;verticalAlign=middle;resizable=0;points=[];autosize=1;strokeColor=none;" vertex="1" parent="1">
          <mxGeometry x="515" y="150" width="50" height="20" as="geometry" />
        </mxCell>
        <mxCell id="2bJsUL1D9cXuKuuz8NJb-44" value="&lt;span&gt;rst&lt;/span&gt;" style="text;html=1;align=center;verticalAlign=middle;resizable=0;points=[];autosize=1;strokeColor=none;" vertex="1" parent="1">
          <mxGeometry x="525" y="200" width="30" height="20" as="geometry" />
        </mxCell>
        <mxCell id="2bJsUL1D9cXuKuuz8NJb-45" value="OR" style="text;html=1;strokeColor=none;fillColor=none;align=center;verticalAlign=middle;whiteSpace=wrap;rounded=0;rotation=-90;" vertex="1" parent="1">
          <mxGeometry x="580" y="180" width="40" height="20" as="geometry" />
        </mxCell>
        <mxCell id="2bJsUL1D9cXuKuuz8NJb-47" value="" style="rounded=0;whiteSpace=wrap;html=1;" vertex="1" parent="1">
          <mxGeometry x="690" y="140" width="120" height="120" as="geometry" />
        </mxCell>
        <mxCell id="2bJsUL1D9cXuKuuz8NJb-48" value="initial signals" style="text;html=1;strokeColor=none;fillColor=none;align=center;verticalAlign=middle;whiteSpace=wrap;rounded=0;" vertex="1" parent="1">
          <mxGeometry x="720" y="180" width="50" height="25" as="geometry" />
        </mxCell>
      </root>
    </mxGraphModel>
  </diagram>
</mxfile>
